{"title":"Cinderella Once Upon A Time In The West 2013 DVDRip x264 AC3-OFF","uid":8249045,"size":1556893003,"categoryP":"video","categoryS":"movies","magnet":"?xt=urn:btih:00badf17e76cee5df1981af3f6accfe973cfbf8d&amp;dn=Cinderella+Once+Upon+A+Time+In+The+West+2013+DVDRip+x264+AC3-OFF&amp;tr=udp%3A%2F%2Ftracker.openbittorrent.com%3A80&amp;tr=udp%3A%2F%2Fopen.demonii.com%3A1337&amp;tr=udp%3A%2F%2Ftracker.coppersurfer.tk%3A6969&amp;tr=udp%3A%2F%2Fexodus.desync.com%3A6969","seeders":1,"leechers":0,"uploader":"juggs99","files":4,"time":1363121802,"description":"Source: NTSC DVDR-NiNJA - Thanks\n &lt;a href=&quot;\nhttp://www.walmart.com/msharbor/ip/22036707?adid=1500000000000012981640&amp;veh=mweb&quot; rel=&quot;nofollow&quot; target=&quot;_NEW&quot;&gt;\nhttp://www.walmart.com/msharbor/ip/22036707?adid=1500000000000012981640&amp;veh=mweb&lt;/a&gt;\n\nOnce upon a time... In the west, there was a secluded, pigtailed cowgirl who worked day and night for her wicked stepmother and evil stepsisters in their dusty frontier town. But this is not your typical &quot;Cinderella&quot; story.\n\nGeneral\nComplete name                            : Cinderella Once Upon A Time In The West 2013 DVDRip x264 AC3-OFFLiNE.mkv\nFormat                                   : Matroska\nFormat version                           : Version 4 / Version 2\nFile size                                : 1.43 GiB\nDuration                                 : 1h 21mn\nOverall bit rate mode                    : Variable\nOverall bit rate                         : 2 518 Kbps\nEncoded date                             : UTC 2013-03-11 00:58:07\nWriting application                      : mkvmerge v6.1.0 ('Old Devil') built on Mar  2 2013 14:32:37\nWriting library                          : libebml v1.3.0 + libmatroska v1.4.0\n\nVideo\nID                                       : 1\nFormat                                   : AVC\nFormat/Info                              : Advanced Video Codec\nFormat profile                           : &lt;a class=&quot;__cf_email__&quot; href=&quot;/cdn-cgi/l/email-protection&quot; data-cfemail=&quot;5119383639111d657f60&quot;&gt;[email&amp;#160;protected]&lt;/a&gt;&lt;script cf-hash='f9e31' type=&quot;text/javascript&quot;&gt;\n/* &lt;![CDATA[ */!function(){try{var t=&quot;currentScript&quot;in document?document.currentScript:function(){for(var t=document.getElementsByTagName(&quot;script&quot;),e=t.length;e--;)if(t[e].getAttribute(&quot;cf-hash&quot;))return t[e]}();if(t&amp;&amp;t.previousSibling){var e,r,n,i,c=t.previousSibling,a=c.getAttribute(&quot;data-cfemail&quot;);if(a){for(e=&quot;&quot;,r=parseInt(a.substr(0,2),16),n=2;a.length-n;n+=2)i=parseInt(a.substr(n,2),16)^r,e+=String.fromCharCode(i);e=document.createTextNode(e),c.parentNode.replaceChild(e,c)}}}catch(u){}}();/* ]]&gt; */&lt;/script&gt;\nFormat settings, CABAC                   : Yes\nFormat settings, ReFrames                : 3 frames\nCodec ID                                 : V_MPEG4/ISO/AVC\nDuration                                 : 1h 21mn\nBit rate mode                            : Variable\nBit rate                                 : 2 068 Kbps\nMaximum bit rate                         : 40.0 Mbps\nWidth                                    : 720 pixels\nHeight                                   : 400 pixels\nDisplay aspect ratio                     : 16:9\nFrame rate mode                          : Constant\nFrame rate                               : 23.976 fps\nColor space                              : YUV\nChroma subsampling                       : 4:2:0\nBit depth                                : 8 bits\nScan type                                : Progressive\nBits/(Pixel*Frame)                       : 0.299\nStream size                              : 1.15 GiB (80%)\nWriting library                          : x264 core 130 r2273 b3065e6\n\nAudio\nID                                       : 2\nFormat                                   : AC-3\nFormat/Info                              : Audio Coding 3\nMode extension                           : CM (complete main)\nFormat settings, Endianness              : Big\nCodec ID                                 : A_AC3\nDuration                                 : 1h 21mn\nBit rate mode                            : Constant\nBit rate                                 : 448 Kbps\nChannel(s)                               : 6 channels\nChannel positions                        : Front: L C R, Side: L R, LFE\nSampling rate                            : 48.0 KHz\nBit depth                                : 16 bits\nCompression mode                         : Lossy\nStream size                              : 261 MiB (18%)\nLanguage                                 : English\nDefault                                  : Yes\nForced                                   : No\n\n &lt;a href=&quot;\nhttp://www.shotpix.com/images/85218020631857713392.png&quot; rel=&quot;nofollow&quot; target=&quot;_NEW&quot;&gt;\nhttp://www.shotpix.com/images/85218020631857713392.png&lt;/a&gt; &lt;a href=&quot;\nhttp://www.shotpix.com/images/71988335163696743641.png&quot; rel=&quot;nofollow&quot; target=&quot;_NEW&quot;&gt;\nhttp://www.shotpix.com/images/71988335163696743641.png&lt;/a&gt; &lt;a href=&quot;\nhttp://www.shotpix.com/images/81603270068493436766.png&quot; rel=&quot;nofollow&quot; target=&quot;_NEW&quot;&gt;\nhttp://www.shotpix.com/images/81603270068493436766.png&lt;/a&gt; &lt;a href=&quot;\nhttp://www.shotpix.com/images/85718819613676402553.png&quot; rel=&quot;nofollow&quot; target=&quot;_NEW&quot;&gt;\nhttp://www.shotpix.com/images/85718819613676402553.png&lt;/a&gt;","torrent":{"xt":"urn:btih:00badf17e76cee5df1981af3f6accfe973cfbf8d","amp;dn":"Cinderella+Once+Upon+A+Time+In+The+West+2013+DVDRip+x264+AC3-OFF","amp;tr":["udp%3A%2F%2Ftracker.openbittorrent.com%3A80","udp%3A%2F%2Fopen.demonii.com%3A1337","udp%3A%2F%2Ftracker.coppersurfer.tk%3A6969","udp%3A%2F%2Fexodus.desync.com%3A6969"],"infoHash":"00badf17e76cee5df1981af3f6accfe973cfbf8d","infoHashBuffer":{"type":"Buffer","data":[0,186,223,23,231,108,238,93,241,152,26,243,246,172,207,233,115,207,191,141]},"announce":[],"urlList":[]}}